<?xml version="1.0" encoding="utf-8"?>
<!-- Generator: Adobe Illustrator 19.0.0, SVG Export Plug-In . SVG Version: 6.00 Build 0)  -->
<svg version="1.1" id="Layer_1" xmlns="http://www.w3.org/2000/svg" xmlns:xlink="http://www.w3.org/1999/xlink" x="0px" y="0px"
	 viewBox="0 0 481 115" style="enable-background:new 0 0 481 115;" xml:space="preserve">
<path d="M348.6,81.6C335.5,81.5,325,71,325,57.9c0-13.2,10.9-24.1,23.9-24c12.9,0.1,23.5,10.8,23.6,23.8
	C372.4,71.1,361.9,81.6,348.6,81.6z M364.8,58c0-9.1-7.1-16.4-16.1-16.4c-8.9,0-16,7.1-16.1,15.9c-0.1,9.3,7.2,16.8,16.3,16.6
	C357.7,74,364.8,66.9,364.8,58z"/>
<path d="M60.2,100.9c0.6-1.8,1-3.4,1.6-4.9C70.9,70.5,80,45.1,89,19.7c3-8.3,3-8.3,12.6-7c-0.5,1.5-0.8,2.8-1.3,4.2
	c-9.2,25.7-18.5,51.3-27.7,77C69.7,101.9,69.7,101.9,60.2,100.9z"/>
<path d="M51.1,25.1c0,2.9-0.2,5,0,7c0.3,3-0.8,4.8-3.3,6.3c-7.6,4.7-15.1,9.7-22.6,14.5c-1.2,0.8-2.5,1.7-4.1,2.8
	c7,5,13.7,9.8,20.4,14.5c1,0.7,2,1.4,3,2.1c7.4,5.2,7.7,5.8,6.1,15.6c-1-0.5-2-1-2.8-1.6C35.5,77.9,23.2,69.3,11,60.6
	C6.2,57.2,6.2,54,11,50.8c12-7.8,24-15.6,36-23.4C48.1,26.7,49.2,26.2,51.1,25.1z"/>
<path d="M109.6,88.5c0-3.7-0.3-6.6,0.1-9.4c0.2-1.5,1.6-3.1,2.9-4c8.8-6.4,17.7-12.6,27.1-19.3c-6.1-4-11.9-7.8-17.6-11.5
	c-1.8-1.2-3.7-2.4-5.6-3.6c-7.7-5-7.7-5-6.6-15.3c1.6,0.9,3,1.5,4.3,2.4c11.8,7.7,23.6,15.3,35.4,23c4.7,3.1,4.8,6.4,0.3,9.6
	c-12.4,8.8-24.8,17.5-37.2,26.2C112,87.2,111.1,87.6,109.6,88.5z"/>
<path d="M219.6,35.2c0.1,1.5,0.2,3.1,0.2,4.8c0,11.7,0,23.5,0,35.2c0,6.6,0,6.6-7.3,5.8c-0.2-3.3-0.3-6.6-0.5-10.4
	c-4.7,0-9.2-0.1-13.8,0.1c-0.8,0-1.7,0.8-2.2,1.4c-1,1.2-1.9,2.4-2.4,3.8c-2.1,5.2-5.9,6.4-11.6,4.9c0.8-1.4,1.4-2.8,2.2-4.1
	c7.7-12.3,15.4-24.5,23.2-36.7C211.2,33.9,211.6,33.7,219.6,35.2z M212,46.6c-3.7,5.9-6.8,10.8-10.1,16.1c3.9,0,6.9,0,10.1,0
	C212,57.5,212,52.6,212,46.6z"/>
<path d="M440.9,72.1c3.3-1.5,5.8-3.3,9.3,0.1c2.8,2.8,7.1,2.7,10.8,0.6c4.2-2.4,4.3-6.6,0.1-9c-1.9-1.1-4.1-1.6-6.1-2.5
	c-3.4-1.6-7.2-2.9-10.2-5.3c-5.6-4.5-5.4-13.4,0.1-18.2c6.5-5.7,17.9-5,24,1.5c-2.2,3.2-4.5,5.9-8.8,2.8c-0.8-0.6-2.1-0.6-3.2-0.6
	c-3.5,0-7.3,0.2-8.3,4.4c-1.2,4.6,2.5,5.9,5.7,7.2c3,1.3,6.3,2.1,9.2,3.6c5,2.5,8.5,6.2,8.1,12.2c-0.3,5.3-4.4,9.9-10.1,11.8
	C453.3,83.5,444.2,79.8,440.9,72.1z"/>
<path d="M403.9,39.6c-1.6,1.7-3.2,3.2-4.7,4.7c-0.1-0.4-0.2-0.7-0.3-1.1c-3.4-0.5-6.9-1.7-10.3-1.3c-2,0.2-4.5,2.6-5.4,4.6
	c-1.3,3,1.4,4.7,3.8,5.9c1.9,0.9,3.9,1.4,5.8,2.2c2,0.8,4.2,1.5,6.1,2.6c4.7,2.7,8,6.4,7.3,12.3c-0.7,5.8-4.4,9.3-9.7,11.2
	c-8.3,3-17.6-0.7-21-8.4c3.1-1.8,5.7-3.5,9.2,0c2.7,2.7,8.2,2.4,11.3,0.4c3.7-2.5,3.8-6.5,0-8.6c-2.8-1.6-6.1-2.4-9.2-3.6
	c-5.5-2.3-10.6-5-11.3-11.8c-0.8-8,4.8-13.9,13.9-14.5C394.8,33.7,399.8,35,403.9,39.6z"/>
<path d="M292.3,34.8c6.3,0,12.7-0.5,19.1,0.1c6.6,0.7,11,7.1,10.7,14.1c-0.3,6.6-5.3,11.9-12,12.5c-2.6,0.2-5.2,0.2-7.8,0.1
	c-2.5-0.1-3.4,0.9-3.4,3.4c0.1,4.5,0,9.1,0,13.6c0,2.7-1.8,2.6-3.6,2.6c-1.8,0-3.7,0.3-3.7-2.5c0.1-14.3,0.1-28.6,0.2-42.9
	C291.7,35.6,292,35.4,292.3,34.8z M305.6,42.2c-0.7,0-1.4,0.1-2.1,0c-3.5-0.5-4.8,0.8-4.7,4.5c0.4,8.7-1.1,7.5,7.7,7.6
	c0.5,0,1.1,0,1.6,0c4.1-0.3,6.7-2.9,6.5-6.4c-0.2-3.5-2.6-5.5-6.7-5.7C307.2,42.2,306.4,42.2,305.6,42.2z"/>
<path d="M256.5,43.2c-8.4-3.1-15.5-1.9-20.9,5.3c-3.9,5.2-4.2,12.4-0.7,17.9c5.2,8,12.7,9.3,21.3,6.5c1.9,6.9,0.9,8.4-5.5,8.8
	c-13.6,0.9-24.8-8.8-25.5-21.9c-0.7-13.9,9.3-25.4,22.9-25.5C258.2,34.1,257.6,35.4,256.5,43.2z"/>
<path d="M262.2,34.8c8.3,0,15.8,0,23.3,0c1.9,6.7,1.4,7.4-5.2,7.4c-3.3,0-6.6,0-10.2,0c0,3.9,0,7.4,0,11.4c1.9,0.1,3.8,0.3,5.8,0.3
	c6.9,0,6.9,0,6.1,7.4c-3.8,0-7.8,0-12.1,0c0,6.8,0,13,0,19.1c-6.9,2-7.7,1.5-7.7-5.1c0-11.7,0-23.4,0-35.1
	C262.2,38.6,262.2,37,262.2,34.8z"/>
<path d="M427.1,80.9c-7.5,0.9-7.5,0.9-7.5-5.7c0-9.8-0.1-19.6,0-29.4c0-2.6-0.8-3.6-3.6-3.6c-6.5-0.1-6.5-0.2-5.7-7.2
	c8.6,0,17.2,0,26.2,0c0,2.4,2.2,5.5-1.3,7c-2.3,0.9-5.1,0.4-8.1,0.5C427.1,55.4,427.1,68.1,427.1,80.9z"/>
</svg>
